PathFileType  4	(X/Y/Z) C:\Users\antoi\Documents\MyRepositories\mobilecap\ResultsAnalysis
DataRate	CameraRate	NumFrames	NumMarkers	Units	OrigDataRate	OrigDataStartFrame	OrigNumFrames
100.0	100.0	6	51	mm	100.0	1	132
Frame#	Time	r_knee			r_shank_antsup			r_ankle			r_calc			r_5meta			r_toe			L_knee			L_shank_antsup			L_ankle			L_calc			L_5meta			L_toe			r_sh2			r_sh3			r_sh4			L_sh2			L_sh3			r_thigh1			r_thigh2			r_thigh3			r_thigh4			r_thigh5			L_thigh1			L_thigh2			L_thigh3			L_thigh4			r.ASIS			r.PSIS			L.ASIS			L.PSIS			C7			R_Shoulder			L_Shoulder			R_Sternum			L_Sternum			R_humerus			R_elbow_med			R_elbow_lat			R_forearm			R_wrist_radius			R_wrist_ulna			L_humerus			L_elbow_med			L_elbow_lat			L_forearm			L_wrist_radius			L_wrist_ulna			R_HJC			L_HJC			R_HJC_reg			L_HJC_reg			
		X1	Y1	Z1	X2	Y2	Z2	X3	Y3	Z3	X4	Y4	Z4	X5	Y5	Z5	X6	Y6	Z6	X7	Y7	Z7	X8	Y8	Z8	X9	Y9	Z9	X10	Y10	Z10	X11	Y11	Z11	X12	Y12	Z12	X13	Y13	Z13	X14	Y14	Z14	X15	Y15	Z15	X16	Y16	Z16	X17	Y17	Z17	X18	Y18	Z18	X19	Y19	Z19	X20	Y20	Z20	X21	Y21	Z21	X22	Y22	Z22	X23	Y23	Z23	X24	Y24	Z24	X25	Y25	Z25	X26	Y26	Z26	X27	Y27	Z27	X28	Y28	Z28	X29	Y29	Z29	X30	Y30	Z30	X31	Y31	Z31	X32	Y32	Z32	X33	Y33	Z33	X34	Y34	Z34	X35	Y35	Z35	X36	Y36	Z36	X37	Y37	Z37	X38	Y38	Z38	X39	Y39	Z39	X40	Y40	Z40	X41	Y41	Z41	X42	Y42	Z42	X43	Y43	Z43	X44	Y44	Z44	X45	Y45	Z45	X46	Y46	Z46	X47	Y47	Z47	X48	Y48	Z48	X49	Y49	Z49	X50	Y50	Z50	X51	Y51	Z51	

1	0.00000000	27.48307	483.13443	-50.83516	88.33828	436.95394	-67.08005	142.83397	99.07492	-100.88445	90.90213	57.38266	-147.75769	256.72287	70.43020	-65.80392	298.84057	115.27597	-113.77580	-304.50138	480.79293	-278.57962	-319.47253	379.06168	-281.35784	-510.10050	134.96920	-213.00682	-577.77262	117.42899	-152.84268	-440.99555	39.70873	-263.37225	-382.13828	55.47329	-220.15051	102.34059	321.52060	-55.39685	8.39375	419.84363	-46.43739	28.40360	309.79534	-55.10119	-394.24699	430.87264	-271.81669	-452.28244	323.02606	-261.97598	-34.59754	794.72939	-1.26106	3.83030	687.93199	-12.62774	-101.13920	645.62977	-1.46737	-140.43726	754.08772	15.56060	-42.23770	646.72621	12.92976	-200.30069	722.77251	-352.10517	-226.45633	593.36297	-317.81928	-297.11124	752.13893	-296.53730	-320.39103	616.61585	-268.31341	-51.55289	929.16090	-52.88831	-246.43624	979.63958	-102.01843	-80.71132	907.20697	-302.62122	-265.02386	984.69568	-201.04861	-262.57472	1376.73292	-200.65534	-170.40126	1357.16387	-15.83649	-172.44664	1343.35046	-374.32580	-120.40043	1357.53149	-172.38300	-116.00102	1357.22796	-215.57093	-186.65114	1225.04001	52.57640	-253.48031	1016.74413	4.96436	-258.37089	1038.19301	73.36166	-212.57422	917.35505	126.91520	-195.95356	785.12425	159.56566	-231.55282	781.26779	167.08960	-120.45712	1237.75719	-428.34214	-60.13132	1006.88485	-370.64293	-50.09635	1036.92470	-444.26029	63.74799	1019.61682	-432.74896	207.49091	950.99414	-427.46572	191.86591	929.35108	-449.52554	-136.37187	855.00145	-59.83581	-166.46905	845.84188	-263.89571	-126.55848	844.08122	-77.91171	-157.24853	852.42945	-241.42079	
2	0.01000000	41.78156	484.15649	-50.17599	101.36945	436.13456	-67.50606	147.06845	97.39236	-101.16484	93.74133	58.91589	-148.32846	259.38505	64.76383	-66.30647	303.76096	107.89297	-114.18076	-288.12104	479.83145	-280.05066	-305.95814	378.65803	-282.98515	-504.36852	140.95532	-215.13300	-572.63595	127.20257	-154.89687	-439.96864	40.67850	-263.89110	-380.17880	54.81192	-221.01323	113.90687	320.43701	-55.50186	21.86297	420.58080	-44.78636	39.64704	310.03192	-53.74589	-378.55590	432.54015	-272.90993	-440.29845	326.81935	-263.31228	-17.98546	796.95888	-2.93609	20.22609	689.83299	-14.07116	-84.62835	647.97301	0.37622	-122.37512	756.77235	17.17040	-25.28843	649.15086	13.12571	-185.67179	722.56858	-352.05312	-211.03168	592.71918	-318.69899	-281.94725	751.12458	-295.15328	-304.56382	615.13178	-268.12917	-36.36591	931.21517	-53.17056	-231.89267	980.34121	-101.94981	-66.28086	906.86300	-302.46580	-250.66825	984.39788	-201.04765	-248.86071	1376.64495	-199.48829	-156.17093	1356.62560	-14.94652	-159.09955	1343.57461	-373.50800	-106.62206	1357.48106	-171.60865	-102.21665	1357.29732	-214.80711	-171.49979	1224.32286	53.23872	-237.63989	1015.80283	5.60298	-242.23442	1037.22871	74.08780	-196.56759	916.37796	127.50799	-180.75615	784.14332	159.74801	-215.85372	780.34869	167.71182	-107.77801	1237.62504	-427.52685	-49.59218	1006.20647	-369.80810	-39.09914	1036.22016	-443.34711	74.54410	1017.75783	-431.63936	217.76615	947.98680	-426.11848	201.94112	926.39569	-448.29748	-120.92329	856.61581	-59.09088	-151.64890	845.45847	-262.93502	-111.25016	845.59316	-77.23532	-142.21835	852.28695	-240.68823	
3	0.02000000	56.23052	485.22699	-49.59948	114.35964	435.33083	-68.01912	151.13083	95.85597	-101.46679	96.40462	60.43842	-148.88591	261.84908	59.47691	-66.71154	308.37931	100.83842	-114.52770	-271.18977	478.83855	-281.80838	-291.86523	378.22545	-284.86394	-498.06427	147.15405	-217.41161	-566.72540	137.41436	-157.12401	-438.77508	41.86620	-264.42403	-378.13199	54.16582	-221.85728	125.37353	319.40291	-55.64557	35.34269	421.37382	-43.17867	50.83967	310.34041	-52.37274	-362.24839	434.20581	-274.20121	-427.72379	330.72534	-264.85370	-1.56835	799.19633	-4.47308	36.49791	691.80040	-15.54029	-68.08436	650.25094	2.25545	-104.59208	759.37473	18.83894	-8.35280	651.58099	13.34567	-170.67723	722.39932	-351.97899	-195.05575	592.07228	-319.68593	-266.52423	749.96597	-293.88881	-288.25639	613.48762	-268.13728	-21.20771	933.34337	-53.40068	-217.35352	981.06658	-101.81048	-51.80582	906.68765	-302.23730	-236.31204	984.14847	-200.96005	-235.13819	1376.63144	-198.29673	-141.86234	1356.20428	-14.06503	-145.78432	1343.89961	-372.68004	-92.83198	1357.53100	-170.85218	-88.45235	1357.46095	-214.06420	-156.25482	1223.71697	53.89762	-221.70987	1014.98246	6.25017	-225.99358	1036.37231	74.82583	-180.35758	915.51538	128.07230	-165.19599	783.27408	159.93497	-199.86590	779.52986	168.29869	-95.18344	1237.57469	-426.73069	-39.18797	1005.61704	-368.93112	-28.30825	1035.54965	-442.43810	85.14625	1015.86303	-430.55138	227.74771	944.79746	-424.82298	211.70005	923.29146	-447.13806	-105.45185	858.27768	-58.31381	-136.77210	845.19537	-261.94748	-95.91165	847.18897	-76.53412	-127.14917	852.27030	-239.90320	
4	0.03000000	70.86900	486.37128	-49.16285	127.26916	434.56600	-68.67909	154.87530	94.58336	-101.81848	98.73875	61.92851	-149.40771	263.97264	54.89415	-66.97486	312.44519	94.40337	-114.82176	-253.24968	477.77762	-284.08173	-276.71165	377.74053	-287.20694	-490.68206	153.72513	-219.98324	-559.34791	148.43937	-159.67388	-437.27128	43.47765	-264.97796	-375.91129	53.58005	-222.68830	136.65223	318.46159	-55.87056	48.82734	422.26613	-41.65157	61.93060	310.78394	-50.99417	-344.81394	435.86156	-275.87114	-414.05046	334.81651	-266.77516	14.50259	801.44230	-5.74814	52.53706	693.87315	-17.00550	-51.52893	652.42204	4.17804	-87.32083	761.83765	20.59805	8.51268	654.01139	13.61725	-155.02588	722.28954	-351.88335	-178.08596	591.41690	-320.88241	-250.63475	748.53553	-292.84483	-271.07930	611.54232	-268.50331	-6.11410	935.57675	-53.52404	-202.83143	981.83316	-101.53964	-37.25707	906.81886	-301.87673	-221.96584	983.98721	-200.71504	-221.40618	1376.75232	-197.05911	-127.41640	1355.99527	-13.19877	-132.53755	1344.39699	-371.83401	-79.02567	1357.75721	-170.12795	-74.72316	1357.79135	-213.35741	-140.83913	1223.31207	54.55014	-205.61706	1014.37957	6.91498	-209.55792	1035.71052	75.58927	-163.77490	914.85935	128.58225	-148.98906	782.60623	160.11383	-183.34616	778.89162	168.81733	-82.73926	1237.66800	-425.96532	-29.02944	1005.18201	-367.98204	-17.89132	1034.93633	-441.53649	95.39411	1013.89612	-429.51237	237.19546	941.27607	-423.62946	220.88696	919.91204	-446.10498	-89.96042	860.00580	-57.48185	-121.80697	845.15248	-260.91813	-80.53739	848.92948	-75.77791	-112.03157	852.47797	-239.01758	
5	0.04000000	85.56949	487.57870	-48.88210	140.03876	433.86678	-69.50028	158.19805	93.64330	-102.24909	100.63742	63.34549	-149.86380	265.69439	51.23427	-67.11858	315.79615	88.80859	-115.13563	-234.00782	476.60448	-286.99589	-260.18525	377.19178	-290.14979	-481.83485	160.73876	-222.95859	-549.96007	160.51894	-162.65501	-435.33558	45.69760	-265.55453	-373.41842	53.15241	-223.55185	147.65091	317.64125	-56.21574	62.26191	423.27794	-40.23867	72.84382	311.40579	-49.66772	-325.92974	437.48985	-278.05677	-398.92131	339.10242	-269.19077	30.13737	803.67985	-6.66309	68.24771	696.03910	-18.35760	-35.08241	654.47670	6.11058	-70.72228	764.14145	22.43336	25.17347	656.41556	13.97125	-138.56585	722.24878	-351.80021	-159.87552	590.74759	-322.37284	-234.16810	746.74039	-292.08966	-252.80953	609.19653	-269.34407	8.86257	937.88590	-53.48616	-188.36027	982.64949	-101.09854	-22.64405	907.33999	-301.34950	-207.66567	983.93923	-200.27229	-207.68316	1377.04421	-195.76142	-112.81366	1356.05780	-12.35311	-119.40949	1345.09236	-370.96697	-65.21822	1358.19679	-169.44588	-61.04635	1358.32550	-212.69453	-125.21187	1223.16316	55.19357	-189.32548	1014.05137	7.60587	-192.87026	1035.29453	76.39177	-146.71532	914.46571	129.01671	-131.98210	782.19448	160.24925	-166.13557	778.48259	169.23954	-70.49370	1237.93326	-425.23283	-19.19815	1004.93008	-366.95197	-7.95760	1034.38732	-440.64378	105.17455	1011.82323	-428.55797	245.94799	937.32685	-422.58669	229.33605	916.17071	-445.23942	-74.49936	861.77906	-56.58732	-106.77141	845.39266	-259.84975	-65.16849	850.83886	-74.93013	-96.91026	852.96187	-237.99287	
6	0.05000000	100.07970	488.80333	-48.73150	152.56997	433.24561	-70.44350	161.04238	93.04826	-102.77317	102.06059	64.63076	-150.22883	267.02292	48.57325	-67.19979	318.37281	84.17910	-115.55310	-213.33092	475.26184	-290.55571	-242.14592	376.58304	-293.73074	-471.26197	168.17805	-226.40439	-538.18420	173.72850	-166.13568	-432.84977	48.69490	-266.15838	-370.53154	53.03992	-224.53353	158.24834	316.94311	-56.69632	75.51626	424.40040	-38.98065	83.44894	312.21869	-48.48966	-305.46245	439.06730	-280.82926	-382.13991	343.54056	-272.13679	45.31773	805.86654	-7.14968	83.54873	698.22372	-19.42729	-18.95728	656.42778	7.98777	-54.86584	766.30090	24.28310	41.42642	658.74004	14.43781	-121.29245	722.26920	-351.79290	-140.38187	590.06113	-324.20799	-217.10954	744.53101	-291.65453	-233.39928	606.40478	-270.72074	23.66627	940.19707	-53.24003	-173.98713	983.51776	-100.48119	-8.01762	908.27210	-300.64754	-193.46465	984.01316	-199.63022	-193.99889	1377.52085	-194.39990	-98.06845	1356.41272	-11.53292	-106.45436	1345.96856	-370.08178	-51.43739	1358.84961	-168.81234	-47.43787	1359.06475	-212.07768	-109.36125	1223.29069	55.82568	-172.82929	1014.01478	8.32948	-175.90117	1035.13738	77.24415	-129.13213	914.35311	129.36093	-114.13443	782.05917	160.29206	-148.15404	778.31903	169.54332	-58.48044	1238.36262	-424.52907	-9.74557	1004.85456	-365.85354	1.45063	1033.89493	-439.75834	114.42563	1009.61471	-427.72953	253.92325	932.90755	-421.74056	236.97233	912.02093	-444.56676	-59.15417	863.54941	-55.63702	-91.72682	845.93489	-258.75965	-49.88207	852.90853	-73.95081	-81.87351	853.72390	-236.80291	
